<?xml version="1.0" encoding="UTF-8"?>
<svg id="Ebene_2" data-name="Ebene 2" xmlns="http://www.w3.org/2000/svg" viewBox="0 0 106.62 22.04">
  <defs>
    <style>
      .cls-1 {
        fill: #fff;
      }
    </style>
  </defs>
  <g id="Ebene_1-2" data-name="Ebene 1">
    <g>
      <g>
        <path class="cls-1" d="M31.08,1.42l1.22-1.42h1.64l-1.36,1.42h-1.51Z"/>
        <g>
          <path class="cls-1" d="M4.34,10.81c-2.4,0-4.34-1.94-4.34-4.34S1.94,2.13,4.34,2.13c1.64,0,3.03.91,3.77,2.22-.73.38-.79.42-1.61.82-.42-.73-1.24-1.24-2.16-1.24-1.4,0-2.54,1.15-2.54,2.54s1.14,2.54,2.54,2.54c.96,0,1.8-.52,2.23-1.33.82.42.84.47,1.61.82-.73,1.38-2.15,2.31-3.84,2.31Z"/>
          <path class="cls-1" d="M9.43,10.79l3.89-8.55h1.9l3.83,8.55h-1.82l-.84-1.89h-4.33l-.9,1.89h-1.71ZM14.29,3.84l-1.44,3.31h2.84l-1.39-3.31h-.01Z"/>
          <path class="cls-1" d="M22.44,9.19v1.59h-1.82V2.19h6.25v1.58h-4.43v1.93h3.91v1.67h-3.91v1.82Z"/>
          <path class="cls-1" d="M30.7,7.37v1.82h4.83v1.58h-6.66V2.19h6.25v1.58h-4.43v1.93h3.91v1.67h-3.91Z"/>
          <path class="cls-1" d="M46.19,10.81c-2.4,0-4.34-1.94-4.34-4.34s1.94-4.34,4.34-4.34c1.64,0,3.03.91,3.77,2.22-.73.38-.79.42-1.61.82-.42-.73-1.24-1.24-2.16-1.24-1.4,0-2.54,1.15-2.54,2.54s1.14,2.54,2.54,2.54c.96,0,1.8-.52,2.23-1.33.82.42.84.47,1.61.82-.73,1.38-2.15,2.31-3.84,2.31Z"/>
          <path class="cls-1" d="M55.91,10.9c-2.45,0-4.43-1.98-4.43-4.43s1.98-4.44,4.43-4.44,4.44,1.98,4.44,4.44-2,4.43-4.44,4.43ZM53.29,6.47c0,1.43,1.19,2.61,2.61,2.61s2.59-1.19,2.59-2.61-1.16-2.63-2.59-2.63-2.61,1.2-2.61,2.63Z"/>
          <path class="cls-1" d="M69.61,7.55c0,2.32-1.37,3.44-3.66,3.44s-3.65-1.1-3.65-3.44V2.22h1.88v5.33c0,.94.24,1.86,1.76,1.86,1.34,0,1.78-.58,1.78-1.86V2.22h1.88v5.33Z"/>
          <path class="cls-1" d="M74.28,3.81h-2.72v-1.57h7.3v1.58h-2.7v6.97h-1.88V3.81Z"/>
          <path class="cls-1" d="M88.11,7.55c0,2.32-1.37,3.44-3.66,3.44s-3.65-1.1-3.65-3.44V2.22h1.88v5.33c0,.94.24,1.86,1.76,1.86,1.34,0,1.78-.58,1.78-1.86V2.22h1.88v5.33Z"/>
          <path class="cls-1" d="M95.49,7.62l2.4,3.18h-2.3l-2.16-3.08h-.92v3.08h-1.9V2.22h3.86c2.16,0,2.99,1.36,2.99,2.75,0,1.16-.61,2.34-2.04,2.65h.07ZM92.51,3.69v2.58h1.46c.9,0,1.64-.2,1.64-1.3s-.74-1.28-1.64-1.28h-1.46Z"/>
          <path class="cls-1" d="M101.78,9.19h4.83v1.58h-6.66V2.19h6.25v1.58h-4.43v1.93h3.91v1.67h-3.91v1.82Z"/>
        </g>
      </g>
      <g>
        <path class="cls-1" d="M36.21,18.26h1.77c.72,0,1.2.23,1.2.93,0,.38-.17.62-.51.79.46.13.69.49.69.96,0,.77-.65,1.09-1.33,1.09h-1.83v-3.77ZM37.03,19.78h.84c.3,0,.51-.13.51-.45,0-.35-.27-.43-.57-.43h-.78v.88ZM37.03,21.38h.89c.32,0,.61-.11.61-.5s-.24-.54-.6-.54h-.9v1.03Z"/>
        <path class="cls-1" d="M41.33,20.56l-1.39-2.3h.93l.88,1.49.88-1.49h.92l-1.4,2.32v1.45h-.83v-1.47Z"/>
        <path class="cls-1" d="M47.99,22.04c-1.06,0-1.91-.86-1.91-1.91s.86-1.91,1.91-1.91c.72,0,1.34.4,1.66.98-.32.17-.35.18-.71.36-.19-.32-.54-.54-.95-.54-.62,0-1.12.51-1.12,1.12s.5,1.12,1.12,1.12c.42,0,.79-.23.98-.59.36.18.37.21.71.36-.32.61-.94,1.02-1.69,1.02Z"/>
        <path class="cls-1" d="M53.08,20.41h-1.75v1.6h-.81v-3.78h.81v1.37h1.75v-1.36h.81v3.77h-.81v-1.6Z"/>
        <path class="cls-1" d="M54.59,22.03l1.71-3.76h.83l1.68,3.76h-.8l-.37-.83h-1.91l-.4.83h-.75ZM56.73,18.97l-.63,1.46h1.25l-.61-1.46h0Z"/>
        <path class="cls-1" d="M60.25,19.42v2.61h-.72v-3.79h.95l1.68,2.35v-2.35h.7v3.79h-.7l-1.91-2.61Z"/>
        <path class="cls-1" d="M64.62,21.32h2.13v.7h-2.93v-3.78h2.75v.7h-1.95v.85h1.72v.73h-1.72v.8Z"/>
        <path class="cls-1" d="M67.67,22v-3.76h.81v3.06h1.93v.7h-2.75Z"/>
      </g>
    </g>
  </g>
</svg>