<svg width="80" height="80" viewBox="0 0 80 80" fill="none" xmlns="http://www.w3.org/2000/svg">
<path d="M40.2776 20.7334C20.4729 20.7333 7.10934 37.1322 4 39.7974C4 39.7974 22.3237 58.1215 40.2776 59.2321C56.3042 60.2234 76 39.7974 76 39.7974C76 39.7974 60.0822 20.7335 40.2776 20.7334Z" stroke="black" stroke-width="2" stroke-linecap="round"/>
<circle cx="40" cy="39.9589" r="18.2255" stroke="black" stroke-width="2"/>
<circle cx="40.0001" cy="39.959" r="4.56304" stroke="black" stroke-width="2"/>
<path d="M29.6741 37.3497C29.6741 37.3497 30.9762 33.6693 33.0122 32.1661C35.1548 30.5842 36.274 30.3499 39.5397 30.1909" stroke="black" stroke-width="2" stroke-linecap="round"/>
<path d="M61.351 13.0636C62.6113 12.3421 63.6485 11.5938 64.5537 10.6896C65.446 9.79839 66.1831 8.78261 66.8878 7.55317C67.5418 8.71503 68.2458 9.69429 69.1189 10.5715C70.0399 11.4968 71.1201 12.2808 72.4617 13.0553C71.1224 13.8289 70.0511 14.618 69.1354 15.5475C68.2635 16.4327 67.5592 17.4207 66.8947 18.5879C66.2012 17.3825 65.4753 16.3758 64.5897 15.4846C63.6828 14.5723 62.6364 13.8078 61.351 13.0636Z" stroke="black" stroke-width="2"/>
</svg>
