<svg width="80" height="80" viewBox="0 0 80 80" fill="none" xmlns="http://www.w3.org/2000/svg">
<path d="M58.556 35.0038C64.9902 32.9566 73.9978 37.3436 73.9978 37.3436C73.9978 37.3436 71.2922 39.3166 68.5932 44.7264C66.6047 48.7118 64.7467 53.1477 62.5849 54.9626C58.8352 58.1106 54.3221 57.918 50.8934 54.4231C47.9742 51.4475 48.1254 48.1133 49.1389 44.0701C50.3882 39.0863 53.6599 36.5616 58.556 35.0038Z" stroke="black" stroke-width="2" stroke-linecap="round"/>
<path d="M62.4472 41.1973C62.4472 41.1973 56.4936 47.6579 53.5903 52.4307C50.5876 57.3668 47.5415 65.9323 47.5415 65.9323" stroke="black" stroke-width="2" stroke-linecap="round"/>
<path d="M24.23 27.7026C29.1001 32.9321 32.5096 34.7562 36.7008 41.0934C40.8919 47.4306 47.3315 65.6266 47.3315 65.6266" stroke="black" stroke-width="2" stroke-linecap="round"/>
<path d="M25.9082 16.764C17.6286 15.1392 11.0405 18.649 4.17676 19.9774C4.17676 19.9774 10.7314 24.3427 12.5903 29.0551C14.4493 33.7674 14.9381 34.3062 16.7971 39.0185C18.656 43.7308 20.7999 46.879 24.7677 49.4246C30.6347 53.1886 39.0484 52.524 43.1444 48.2067C47.2404 43.8894 47.3321 35.0364 43.8086 27.948C40.0082 20.3024 34.2866 18.4082 25.9082 16.764Z" stroke="black" stroke-width="2" stroke-linecap="round"/>
</svg>
