<svg width="80" height="80" viewBox="0 0 80 80" fill="none" xmlns="http://www.w3.org/2000/svg">
<path d="M19.4795 20.2681C15.1504 25.5682 6.37113 36.4112 5.88574 37.3823L40.1137 72.3386L74.099 37.3823L59.7766 20.2681H19.4795Z" stroke="black" stroke-width="2" stroke-linecap="square"/>
<path d="M6.71143 37.4702C13.9746 37.5114 25.1251 39.2283 32.6174 47.3908C40.1098 55.5533 39.8558 71.125 39.8558 71.125" stroke="black" stroke-width="2" stroke-linecap="square"/>
<path d="M72.5098 37.4702C65.3859 37.5114 54.4493 39.2283 47.1006 47.3908C39.752 55.5533 40.0011 71.125 40.0011 71.125" stroke="black" stroke-width="2" stroke-linecap="square"/>
<path d="M20.1963 21.4443C20.1963 21.4443 33.0001 24.8614 38.6763 30.5674C43.5917 35.5086 47.2142 46.2398 47.2142 46.2398" stroke="black" stroke-width="2" stroke-linecap="square"/>
<path d="M59.8931 21.0459C59.8931 21.0459 47.0892 24.463 41.4131 30.1689C36.4976 35.1102 32.8752 45.8414 32.8752 45.8414" stroke="black" stroke-width="2" stroke-linecap="square"/>
</svg>
