<svg width="17" height="17" viewBox="0 0 17 17" fill="none" xmlns="http://www.w3.org/2000/svg">
<path d="M13.9399 3.66775C13.2332 2.95923 12.2964 2.52678 11.2988 2.44853C10.3011 2.37029 9.30837 2.6514 8.49986 3.24109C7.65163 2.61018 6.59585 2.32409 5.54514 2.44045C4.49442 2.5568 3.52682 3.06694 2.83717 3.86814C2.14753 4.66935 1.78707 5.7021 1.82839 6.75843C1.86971 7.81476 2.30974 8.8162 3.05986 9.56109L7.19986 13.7078C7.54654 14.0489 8.01345 14.2402 8.49986 14.2402C8.98627 14.2402 9.45318 14.0489 9.79986 13.7078L13.9399 9.56109C14.7182 8.77793 15.1551 7.7186 15.1551 6.61442C15.1551 5.51024 14.7182 4.45091 13.9399 3.66775ZM12.9999 8.64109L8.85986 12.7811C8.81275 12.8287 8.75668 12.8664 8.69489 12.8922C8.63309 12.918 8.56681 12.9312 8.49986 12.9312C8.43291 12.9312 8.36662 12.918 8.30483 12.8922C8.24304 12.8664 8.18697 12.8287 8.13986 12.7811L3.99986 8.62109C3.47703 8.08665 3.18427 7.36873 3.18427 6.62109C3.18427 5.87344 3.47703 5.15552 3.99986 4.62109C4.53263 4.09508 5.25117 3.80013 5.99986 3.80013C6.74854 3.80013 7.46709 4.09508 7.99986 4.62109C8.06183 4.68357 8.13557 4.73317 8.21681 4.76701C8.29805 4.80086 8.38518 4.81829 8.47319 4.81829C8.5612 4.81829 8.64834 4.80086 8.72958 4.76701C8.81082 4.73317 8.88455 4.68357 8.94653 4.62109C9.4793 4.09508 10.1978 3.80013 10.9465 3.80013C11.6952 3.80013 12.4138 4.09508 12.9465 4.62109C13.4765 5.14852 13.7789 5.86255 13.7889 6.61021C13.7989 7.35787 13.5156 8.07971 12.9999 8.62109V8.64109Z" fill="white"/>
</svg>
