<svg width="25" height="25" viewBox="0 0 25 25" fill="none" xmlns="http://www.w3.org/2000/svg">
<path d="M8.18043 1.83984C4.74002 1.83984 1.94043 4.63944 1.94043 8.07984V16.7198C1.94043 20.1603 4.74002 22.9598 8.18043 22.9598H16.8204C20.2608 22.9598 23.0604 20.1603 23.0604 16.7198V8.07984C23.0604 4.63944 20.2608 1.83984 16.8204 1.83984H8.18043ZM8.18043 2.79984H16.8204C19.7419 2.79984 22.1004 5.15833 22.1004 8.07984V16.7198C22.1004 19.6414 19.7419 21.9998 16.8204 21.9998H8.18043C5.25892 21.9998 2.90043 19.6414 2.90043 16.7198V8.07984C2.90043 5.15833 5.25892 2.79984 8.18043 2.79984ZM18.2604 5.67984C18.0058 5.67984 17.7616 5.78099 17.5816 5.96102C17.4016 6.14106 17.3004 6.38524 17.3004 6.63984C17.3004 6.89445 17.4016 7.13863 17.5816 7.31867C17.7616 7.4987 18.0058 7.59984 18.2604 7.59984C18.515 7.59984 18.7592 7.4987 18.9393 7.31867C19.1193 7.13863 19.2204 6.89445 19.2204 6.63984C19.2204 6.38524 19.1193 6.14106 18.9393 5.96102C18.7592 5.78099 18.515 5.67984 18.2604 5.67984ZM12.5004 7.11984C9.59005 7.11984 7.22043 9.48947 7.22043 12.3998C7.22043 15.3102 9.59005 17.6798 12.5004 17.6798C15.4108 17.6798 17.7804 15.3102 17.7804 12.3998C17.7804 9.48947 15.4108 7.11984 12.5004 7.11984ZM12.5004 8.07984C14.892 8.07984 16.8204 10.0083 16.8204 12.3998C16.8204 14.7914 14.892 16.7198 12.5004 16.7198C10.1089 16.7198 8.18043 14.7914 8.18043 12.3998C8.18043 10.0083 10.1089 8.07984 12.5004 8.07984Z" fill="white"/>
</svg>
