<svg width="80" height="80" viewBox="0 0 80 80" fill="none" xmlns="http://www.w3.org/2000/svg">
<g clip-path="url(#clip0_89_3246)">
<path d="M24.5982 41.2284C18.9623 39.1054 17.4606 39.3794 13.2563 38.8926C13.2563 38.8926 14.8245 44.9827 17.8028 48.2845C21.7331 52.6418 27.6683 51.9189 31.4423 56.4111C34.3056 59.8193 35.353 65.267 35.353 65.267C35.353 65.267 37.9932 59.3308 36.5265 55.7789C35.0598 52.2269 28.2157 42.5911 24.5982 41.2284Z" stroke="black" stroke-width="2" stroke-linecap="round"/>
<path d="M8.26928 49.1118C8.29188 45.7521 10.8695 40.9824 10.8695 40.9824C10.8695 40.9824 11.8561 48.7237 14.8869 52.322C18.4302 56.5287 23.2575 54.6177 27.0804 58.5745C30.3193 61.9268 33.0384 68.2451 33.0384 68.2451C33.0384 68.2451 23.2589 70.7211 17.0199 65.1691C13.3603 61.9125 8.23641 53.9979 8.26928 49.1118Z" stroke="black" stroke-width="2" stroke-linecap="round"/>
<path d="M52.3427 20.2646C50.7784 14.1662 49.6189 13.0742 47.4819 9.22119C47.4819 9.22119 43.054 14.4089 41.9529 19.0154C40.4999 25.0944 44.7638 29.6387 43.096 35.6715C41.8306 40.2486 37.6528 44.5896 37.6528 44.5896C37.6528 44.5896 44.5146 43.047 46.76 39.556C49.0053 36.065 53.3469 24.1792 52.3427 20.2646Z" stroke="black" stroke-width="2" stroke-linecap="round"/>
<path d="M35.3987 11.5033C38.3836 9.38976 44.1757 8.53493 44.1757 8.53493C44.1757 8.53493 37.9325 14.2805 36.6013 19.1195C35.045 24.7767 39.683 27.6328 38.5185 33.3671C37.532 38.2253 33.6052 44.5281 33.6052 44.5281C33.6052 44.5281 25.4433 37.856 26.5429 29.0725C27.1878 23.9204 31.0578 14.5772 35.3987 11.5033Z" stroke="black" stroke-width="2" stroke-linecap="round"/>
<path d="M69.2625 53.8131C70.5071 47.3557 69.9552 45.7771 69.7295 41.1455C69.7295 41.1455 63.5967 43.8722 60.6453 47.6533C56.7504 52.643 58.5528 58.943 54.4885 63.7863C51.405 67.461 45.8568 69.5156 45.8568 69.5156C45.8568 69.5156 52.5662 71.3685 56.0461 69.1808C59.526 66.9932 68.4636 57.958 69.2625 53.8131Z" stroke="black" stroke-width="2" stroke-linecap="round"/>
<path d="M58.1025 37.4784C61.6415 36.9348 67.1126 38.9173 67.1126 38.9173C67.1126 38.9173 59.1405 41.294 55.8863 45.182C52.0819 49.7275 54.9399 54.6277 51.4476 59.4335C48.4888 63.505 42.318 67.5158 42.318 67.5158C42.318 67.5158 37.9963 57.3524 42.743 49.6625C45.5272 45.1519 52.9556 38.2691 58.1025 37.4784Z" stroke="black" stroke-width="2" stroke-linecap="round"/>
</g>
<defs>
<clipPath id="clip0_89_3246">
<rect width="80" height="80" fill="white"/>
</clipPath>
</defs>
</svg>
