<svg width="17" height="17" viewBox="0 0 17 17" fill="none" xmlns="http://www.w3.org/2000/svg">
<path d="M8.1669 1.66699C7.29142 1.66699 6.42452 1.83943 5.61568 2.17446C4.80684 2.50949 4.07191 3.00056 3.45286 3.61961C2.20262 4.86986 1.50024 6.56555 1.50024 8.33366C1.49441 9.87308 2.02743 11.366 3.0069 12.5537L1.67357 13.887C1.58106 13.9807 1.5184 14.0998 1.49348 14.2291C1.46857 14.3584 1.48252 14.4923 1.53357 14.6137C1.58894 14.7336 1.67871 14.8344 1.79147 14.9033C1.90423 14.9721 2.0349 15.0059 2.1669 15.0003H8.1669C9.93501 15.0003 11.6307 14.2979 12.8809 13.0477C14.1312 11.7975 14.8336 10.1018 14.8336 8.33366C14.8336 6.56555 14.1312 4.86986 12.8809 3.61961C11.6307 2.36937 9.93501 1.66699 8.1669 1.66699ZM8.1669 13.667H3.77357L4.39357 13.047C4.51774 12.9221 4.58743 12.7531 4.58743 12.577C4.58743 12.4009 4.51774 12.2319 4.39357 12.107C3.52063 11.235 2.97702 10.0874 2.85536 8.85952C2.73371 7.63169 3.04153 6.39966 3.72639 5.37334C4.41124 4.34702 5.43076 3.5899 6.61125 3.23097C7.79173 2.87205 9.06014 2.93353 10.2004 3.40493C11.3406 3.87634 12.2821 4.72851 12.8645 5.81625C13.4469 6.904 13.6342 8.16002 13.3943 9.37033C13.1545 10.5806 12.5024 11.6704 11.5493 12.4538C10.5961 13.2373 9.40074 13.666 8.1669 13.667Z" fill="white"/>
</svg>
