<svg width="40" height="40" viewBox="0 0 40 40" fill="none" xmlns="http://www.w3.org/2000/svg">
<circle cx="20" cy="14.3813" r="5" stroke="white" stroke-width="2"/>
<path d="M19.1572 33.8885C19.4542 34.3541 20.0724 34.4908 20.5381 34.1938C21.0037 33.8968 21.1404 33.2786 20.8434 32.8129L19.1572 33.8885ZM13.8265 24.5392L14.604 23.9104L13.8265 24.5392ZM9.07487 14.8904L8.0749 14.8986L9.07487 14.8904ZM13.2189 5.75458L13.8516 6.52899L13.2189 5.75458ZM19.184 4.86466L20.1837 4.83797L20.1303 2.83868L19.1307 2.86538L19.184 4.86466ZM20.0003 33.3507C20.8434 32.8129 20.8433 32.8129 20.8433 32.8128C20.8433 32.8128 20.8432 32.8127 20.8431 32.8126C20.843 32.8124 20.8428 32.8121 20.8426 32.8117C20.8421 32.8109 20.8414 32.8098 20.8405 32.8084C20.8387 32.8056 20.836 32.8014 20.8325 32.7959C20.8255 32.7849 20.8151 32.7687 20.8016 32.7476C20.7744 32.7053 20.7345 32.6431 20.6828 32.563C20.5795 32.4027 20.4293 32.1707 20.241 31.8823C19.8645 31.3056 19.3351 30.5029 18.7233 29.5983C17.5043 27.7959 15.9411 25.5634 14.604 23.9104L13.049 25.1681C14.3294 26.7512 15.8531 28.9244 17.0666 30.7187C17.6711 31.6125 18.1943 32.4059 18.5664 32.9757C18.7524 33.2606 18.9005 33.4893 19.0019 33.6467C19.0526 33.7253 19.0916 33.7861 19.1179 33.827C19.131 33.8475 19.1409 33.863 19.1475 33.8733C19.1508 33.8785 19.1533 33.8824 19.1549 33.8849C19.1557 33.8862 19.1563 33.8871 19.1567 33.8877C19.1569 33.888 19.157 33.8882 19.1571 33.8883C19.1571 33.8884 19.1572 33.8884 19.1572 33.8885C19.1572 33.8885 19.1572 33.8885 20.0003 33.3507ZM14.604 23.9104C12.6561 21.502 10.1059 18.6882 10.0748 14.8823L8.0749 14.8986C8.11289 19.5483 11.2519 22.9462 13.049 25.1681L14.604 23.9104ZM10.0748 14.8823C10.0596 13.0227 10.3236 11.5088 10.9108 10.1896C11.4961 8.87471 12.4309 7.6897 13.8516 6.52899L12.5863 4.98017C10.9731 6.2981 9.81988 7.72225 9.08362 9.37626C8.34927 11.026 8.05809 12.8407 8.0749 14.8986L10.0748 14.8823ZM13.8516 6.52899C14.7603 5.78665 16.0561 5.35546 17.2107 5.1183C17.7741 5.00257 18.2751 4.93871 18.6339 4.90396C18.8128 4.88664 18.955 4.87668 19.0503 4.87112C19.0979 4.86834 19.1337 4.86666 19.1565 4.86571C19.1679 4.86523 19.1759 4.86494 19.1806 4.86478C19.1829 4.8647 19.1844 4.86466 19.185 4.86464C19.1853 4.86463 19.1853 4.86463 19.1852 4.86463C19.1851 4.86463 19.185 4.86464 19.1848 4.86464C19.1847 4.86465 19.1845 4.86465 19.1844 4.86465C19.1843 4.86466 19.184 4.86466 19.1573 3.86502C19.1307 2.86538 19.1304 2.86538 19.1302 2.86539C19.1301 2.86539 19.1298 2.8654 19.1296 2.8654C19.1292 2.86542 19.1287 2.86543 19.1282 2.86544C19.1271 2.86547 19.1258 2.86551 19.1243 2.86556C19.1212 2.86565 19.1173 2.86578 19.1125 2.86594C19.1028 2.86627 19.0896 2.86676 19.073 2.86745C19.0397 2.86884 18.9929 2.87106 18.9337 2.87451C18.8155 2.88141 18.6478 2.89326 18.4411 2.91328C18.0287 2.95322 17.4557 3.02622 16.8083 3.1592C15.5413 3.41945 13.8679 3.93304 12.5863 4.98017L13.8516 6.52899Z" fill="white"/>
<path d="M20.8433 33.8885C20.5463 34.3541 19.9281 34.4908 19.4624 34.1938C18.9968 33.8968 18.8601 33.2786 19.1571 32.8129L20.8433 33.8885ZM26.174 24.5392L25.3965 23.9104L26.174 24.5392ZM30.9256 14.8904L31.9256 14.8986L30.9256 14.8904ZM26.7816 5.75458L26.1489 6.52899L26.7816 5.75458ZM20.8164 4.86466L19.8168 4.83797L19.8702 2.83868L20.8698 2.86538L20.8164 4.86466ZM20.0002 33.3507C19.1571 32.8129 19.1572 32.8129 19.1572 32.8128C19.1572 32.8128 19.1573 32.8127 19.1574 32.8126C19.1575 32.8124 19.1577 32.8121 19.1579 32.8117C19.1584 32.8109 19.1591 32.8098 19.16 32.8084C19.1618 32.8056 19.1645 32.8014 19.168 32.7959C19.175 32.7849 19.1854 32.7687 19.1989 32.7476C19.2261 32.7053 19.266 32.6431 19.3176 32.563C19.4209 32.4027 19.5711 32.1707 19.7595 31.8823C20.136 31.3056 20.6654 30.5029 21.2772 29.5983C22.4962 27.7959 24.0594 25.5634 25.3965 23.9104L26.9515 25.1681C25.6711 26.7512 24.1474 28.9244 22.9339 30.7187C22.3294 31.6125 21.8062 32.4059 21.4341 32.9757C21.2481 33.2606 21.1 33.4893 20.9986 33.6467C20.9479 33.7253 20.9089 33.7861 20.8826 33.827C20.8695 33.8475 20.8596 33.863 20.853 33.8733C20.8497 33.8785 20.8472 33.8824 20.8456 33.8849C20.8448 33.8862 20.8442 33.8871 20.8438 33.8877C20.8436 33.888 20.8435 33.8882 20.8434 33.8883C20.8433 33.8884 20.8433 33.8884 20.8433 33.8885C20.8433 33.8885 20.8433 33.8885 20.0002 33.3507ZM25.3965 23.9104C27.3444 21.502 29.8946 18.6882 29.9257 14.8823L31.9256 14.8986C31.8876 19.5483 28.7486 22.9462 26.9515 25.1681L25.3965 23.9104ZM29.9257 14.8823C29.9408 13.0227 29.6769 11.5088 29.0897 10.1896C28.5044 8.87471 27.5696 7.6897 26.1489 6.52899L27.4142 4.98017C29.0274 6.2981 30.1806 7.72225 30.9169 9.37626C31.6512 11.026 31.9424 12.8407 31.9256 14.8986L29.9257 14.8823ZM26.1489 6.52899C25.2402 5.78665 23.9444 5.35546 22.7898 5.1183C22.2264 5.00257 21.7254 4.93871 21.3666 4.90396C21.1877 4.88664 21.0455 4.87668 20.9502 4.87112C20.9026 4.86834 20.8667 4.86666 20.844 4.86571C20.8326 4.86523 20.8245 4.86494 20.8199 4.86478C20.8176 4.8647 20.8161 4.86466 20.8155 4.86464C20.8152 4.86463 20.8152 4.86463 20.8153 4.86463C20.8154 4.86463 20.8155 4.86464 20.8157 4.86464C20.8158 4.86465 20.816 4.86465 20.816 4.86465C20.8162 4.86466 20.8164 4.86466 20.8431 3.86502C20.8698 2.86538 20.8701 2.86538 20.8703 2.86539C20.8704 2.86539 20.8707 2.8654 20.8709 2.8654C20.8713 2.86542 20.8718 2.86543 20.8723 2.86544C20.8734 2.86547 20.8747 2.86551 20.8762 2.86556C20.8792 2.86565 20.8832 2.86578 20.888 2.86594C20.8977 2.86627 20.9109 2.86676 20.9275 2.86745C20.9608 2.86884 21.0076 2.87106 21.0667 2.87451C21.1849 2.88141 21.3527 2.89326 21.5594 2.91328C21.9718 2.95322 22.5448 3.02622 23.1922 3.1592C24.4592 3.41945 26.1325 3.93304 27.4142 4.98017L26.1489 6.52899Z" fill="white"/>
</svg>
