<svg width="40" height="40" viewBox="0 0 40 40" fill="none" xmlns="http://www.w3.org/2000/svg">
<path d="M7.62549 28.3654V22.3604C7.62549 22.3604 14.5315 23.8735 19.0222 23.8928C23.6614 23.9127 30.8023 22.3604 30.8023 22.3604V28.873C30.8023 28.873 23.0841 29.5243 19.0222 29.5243C14.5209 29.5243 7.62549 28.3654 7.62549 28.3654Z" stroke="white" stroke-width="2" stroke-linecap="round"/>
<path d="M11.3179 19.7547C11.3179 19.7547 9.21503 7.36059 11.3179 5.34647C13.4208 3.33234 18.2102 3.39277 18.2102 3.39277" stroke="white" stroke-width="2" stroke-linecap="square"/>
<path d="M26.892 19.7547C26.892 19.7547 28.9949 7.36059 26.892 5.34647C24.7892 3.33234 19.9998 3.39277 19.9998 3.39277" stroke="white" stroke-width="2" stroke-linecap="square"/>
<line x1="15.0901" y1="17.6651" x2="14.5022" y2="8.8404" stroke="white" stroke-width="2"/>
<line x1="29.6272" y1="37.0647" x2="28.7614" y2="31.1275" stroke="white" stroke-width="2"/>
<line y1="-1" x2="6" y2="-1" transform="matrix(0.144286 -0.989536 -0.989536 -0.144286 7.62549 36.9204)" stroke="white" stroke-width="2"/>
<line x1="23.7156" y1="8.82084" x2="23.1279" y2="17.6456" stroke="white" stroke-width="2"/>
<line x1="19.3906" y1="17.5986" x2="19.3906" y2="8.75436" stroke="white" stroke-width="2"/>
</svg>
